<?xml version="1.0" encoding="utf-8"?>
<!-- Generator: Adobe Illustrator 22.1.0, SVG Export Plug-In . SVG Version: 6.00 Build 0)  -->
<svg version="1.1" id="Layer_1" xmlns="http://www.w3.org/2000/svg" xmlns:xlink="http://www.w3.org/1999/xlink" x="0px" y="0px"
	 viewBox="0 0 10 10" style="enable-background:new 0 0 10 10;" xml:space="preserve">
<style type="text/css">
	.st0{fill:none;}
	.st1{fill:#B1B0B0;}
	.st2{fill:#FFFFFF;}
	.st3{fill:none;stroke:#FFFFFF;stroke-width:2;stroke-linecap:round;stroke-linejoin:round;stroke-miterlimit:10;}
	.st4{fill:none;stroke:#000000;stroke-width:2;stroke-linecap:round;stroke-linejoin:round;stroke-miterlimit:10;}
	.st5{fill:#20B7C8;}
</style>
<path class="st2" d="M8.1,6.7L6.3,5l1.7-1.7c0.3-0.3,0.3-0.9,0-1.2c-0.3-0.3-0.9-0.3-1.2,0L5.1,3.8L3.4,2.1c-0.3-0.3-0.9-0.3-1.2,0
	s-0.3,0.9,0,1.2L3.9,5L2.2,6.7c-0.3,0.3-0.3,0.9,0,1.2s0.9,0.3,1.2,0l1.7-1.7l1.7,1.7c0.3,0.3,0.9,0.3,1.2,0
	C8.4,7.6,8.4,7.1,8.1,6.7z"/>
</svg>
