<?xml version="1.0" encoding="utf-8"?>
<!-- Generator: Adobe Illustrator 22.1.0, SVG Export Plug-In . SVG Version: 6.00 Build 0)  -->
<svg version="1.1" id="Layer_1" xmlns="http://www.w3.org/2000/svg" xmlns:xlink="http://www.w3.org/1999/xlink" x="0px" y="0px"
	 viewBox="0 0 45 45" style="enable-background:new 0 0 45 45;" xml:space="preserve">
<style type="text/css">
	.st0{fill:none;}
	.st1{fill:#B1B0B0;}
	.st2{fill:#FFFFFF;}
	.st3{fill:none;stroke:#FFFFFF;stroke-width:2;stroke-linecap:round;stroke-linejoin:round;stroke-miterlimit:10;}
	.st4{fill:none;stroke:#000000;stroke-width:2;stroke-linecap:round;stroke-linejoin:round;stroke-miterlimit:10;}
	.st5{fill:#20B7C8;}
</style>
<g>
	<path class="st1" d="M22.5,18.3c-1-0.9-2-1.8-3-2.6l3-4.8l3,4.9C24.5,16.5,23.5,17.4,22.5,18.3"/>
	<path class="st1" d="M30.6,40.9c8.8-8.1,0.5-22.9,2.8-27.5c-2.7,0.4-6.3,2.9-9.6,6c-2.2,2.1-6,6.4-7.1,11.7
		c-0.5,2.3-0.3,4.7,0.4,6.7c0.7,2,2.2,3.7,3.9,4.3c2.3,0.9,5.8,1.3,10.6-1c6.8-3.2,11.6-10.3,11.6-18.5c0-11.3-9.3-20.5-20.6-20.5
		c-11.3,0-20.6,9.2-20.6,20.5c0,8.1,4.7,15.2,11.5,18.5c2.1,1,3.9,1.5,5.6,1.6c-1.6-0.9-2.9-2.7-3.5-4.5c-0.8-2.2-1-4.9-0.5-7.5
		C16,26,19,22,21.4,19.5l0,0h0c-3.3-3.1-6.9-5.7-9.6-6c2.3,4.7-6.1,19.4,2.7,27.5C8.8,38.1,4.4,30.2,4.4,22.7
		c0-10.9,8.1-19.9,18.2-19.9c10,0,18.2,9,18.2,19.9C40.7,30.2,36.2,38.1,30.6,40.9"/>
</g>
</svg>
