<?xml version="1.0" encoding="utf-8"?>
<!-- Generator: Adobe Illustrator 22.1.0, SVG Export Plug-In . SVG Version: 6.00 Build 0)  -->
<svg version="1.1" id="Layer_1" xmlns="http://www.w3.org/2000/svg" xmlns:xlink="http://www.w3.org/1999/xlink" x="0px" y="0px"
	 viewBox="0 0 800 800" style="enable-background:new 0 0 800 800;" xml:space="preserve">
<style type="text/css">
	.st0{fill:none;}
	.st1{fill:#B1B0B0;}
	.st2{font-family:'Effra-Light';}
	.st3{font-size:93.318px;}
	.st4{letter-spacing:13;}
	.st5{letter-spacing:9;}
	.st6{fill:#FFFFFF;}
	.st7{fill:none;stroke:#FFFFFF;stroke-width:2;stroke-linecap:round;stroke-linejoin:round;stroke-miterlimit:10;}
	.st8{fill:none;stroke:#000000;stroke-width:2;stroke-linecap:round;stroke-linejoin:round;stroke-miterlimit:10;}
	.st9{fill:#20B7C8;}
</style>
<rect width="800" height="800"/>
<rect class="st0" width="800" height="800"/>
<g>
	<path class="st1" d="M401.3,387.4c-2.9-2.7-5.9-5.3-9.1-7.7l9.1-14.5l9.1,14.6C407.3,382,404.3,384.6,401.3,387.4"/>
	<path class="st1" d="M425.4,455.3c26.5-24.3,1.5-68.6,8.3-82.6c-8.1,1.2-19,8.7-28.8,18.1c-6.6,6.3-18.1,19.2-21.2,35
		c-1.4,7-1,14.1,1.2,20c2.2,6.1,6.6,11,11.8,13c6.8,2.7,17.4,3.9,31.8-2.9c20.4-9.7,34.7-31,34.7-55.4c0-34-27.8-61.6-61.8-61.6
		c-34,0-61.8,27.5-61.8,61.5c0,24.4,14.2,45.7,34.6,55.4c6.3,3,11.8,4.4,16.7,4.9c-4.8-2.6-8.7-8-10.6-13.4
		c-2.4-6.7-2.9-14.7-1.4-22.6c2.8-14.3,11.8-26.4,19-34l-0.1-0.1h0c-9.9-9.4-20.7-17-28.8-18.1c6.8,14-18.3,58.2,8.2,82.6
		c-17-8.5-30.4-32.2-30.4-54.7c0-32.7,24.4-59.7,54.5-59.7c30.1,0,54.5,27.1,54.5,59.7C455.8,423.2,442.3,446.8,425.4,455.3"/>
	<text transform="matrix(1 0 0 1 50.2021 428.4854)"><tspan x="0" y="0" class="st1 st2 st3 st4">C</tspan><tspan x="75.8" y="0" class="st1 st2 st3 st5">L</tspan><tspan x="135.5" y="0" class="st1 st2 st3 st4">U</tspan><tspan x="211.3" y="0" class="st1 st2 st3">B</tspan></text>
	<path class="st6" d="M703.3,370.7c0.1,0.7,0.1,1.4,0.1,2c0,4.5-1.7,9.2-4.6,13.1c0.8,0,0.4,0,1.3,0h1.6c7.7-4.9,7.1-14.2,7-15.1
		H703.3z"/>
	<path class="st6" d="M491.9,388.3l0.1,11v30h5.5v-25.2h10.6c5.1,0,7.9-0.2,10.7-0.7c7.7-1.5,12.8-8,12.8-16
		c0-8.1-5.1-14.5-12.8-16.1c-2.8-0.5-5.6-0.6-10.7-0.6h-16.5c0.2,1.1,0.3,6.2,0.3,9.9L491.9,388.3z M497.5,375h8.7l3.7,0.1
		c6.5,0.1,8.8,0.6,11.5,2.9c2.7,2.1,4.4,5.8,4.4,9.3c0,4.1-2.3,8.2-5.6,10.2c-2.3,1.4-7.7,2.3-14.3,2.3h-8.5V375z"/>
	<path class="st6" d="M636.5,422.8c-24.6-36.4-25.1-37.2-25.1-37.2l-0.6-0.9c-8.9-13.3-14.6-14-14.6-14v0H595v58.6h5.3v-52
		c24.7,36.4,25.2,37.3,25.2,37.3l0.6,0.9c8.9,13.2,14.6,13.9,14.6,13.9h1v-58.6h-5.3V422.8z"/>
	<path class="st6" d="M741.2,399c-3-1.2-5-1.7-12.6-3.5c-7.9-1.8-10.8-4.5-10.8-10.1c0-6.9,5.9-11.6,14.5-11.6c4.4,0,7.9,0.9,11,2.8
		l4.4-3l-0.2-0.1c-5-3-9-4-15.1-4c-11.9,0-20.2,6.6-20.2,16.1c0,3.9,1.5,7.5,4.3,10.1c2.8,2.5,6.4,4,13.4,5.4
		c7.3,1.6,9.1,2.2,11.1,3.8c1.8,1.4,3.1,4.5,3.1,7.6c0,7.7-6.9,13.4-16,13.4c-5.4,0-9.4-1.7-13.4-5.7l-5.1,2.9
		c1.7,1.7,6.2,5.3,13.2,6.7c1.7,0.4,3.5,0.5,5.5,0.5c12.5,0,21.5-7.7,21.5-18.2c0-3.8-1.3-7.4-3.5-9.8
		C744.9,401,743.2,399.8,741.2,399"/>
	<path class="st6" d="M662.5,370.7h-13.6c0.2,1.1,0.3,6.2,0.3,9.9l0.1,7.8l0,11v9.7c0,15.1,0,20.3,0,20.3h13.1c12.9,0,19.4-2,25.7-8
		c5.5-5.3,8.4-12.1,8.5-20.2c0-0.4,0-1.1,0-1.6c0-8.3-2.9-15.4-8.5-20.8C681.9,372.7,675.4,370.7,662.5,370.7 M691,400.4
		c0,0.4,0,0.7,0,1v0c0,0.1,0,0.2,0,0.3c-0.5,9-4.7,15.1-10.1,19.2c-2.1,1.5-4.5,2.6-7.1,3.2c-3.6,0.9-6.3,1.1-12.8,1.1h-6.2v-50.5
		h6.2c6.6,0,9.2,0.2,12.8,1.1c2.5,0.6,4.8,1.6,6.8,2.9c5.5,4.1,9.9,10.3,10.4,19.5v0.3v0.4C691,399.4,691,400.1,691,400.4"/>
	<path class="st6" d="M589.6,400c0-16.8-12.5-30.5-27.9-30.5c-15.4,0-27.9,13.6-27.9,30.5c0,16.8,12.5,30.4,27.9,30.4
		C577.1,430.4,589.6,416.8,589.6,400 M561.7,426c-6.8,0-13.2-3.1-17.3-8.7c-3.3-4.6-5-10.9-5-17.3c0-6.5,1.6-12.8,5-17.4
		c4.1-5.5,10.5-8.7,17.3-8.7c6.8,0,13.2,3.1,17.3,8.7c3.3,4.6,5,10.9,5,17.4c0,6.5-1.7,12.8-5,17.4C575,422.9,568.5,426,561.7,426"
		/>
</g>
<rect class="st0" width="800" height="800"/>
</svg>
